<svg width="17" height="21" viewBox="0 0 17 21" fill="none" xmlns="http://www.w3.org/2000/svg">
<path d="M10.3241 2.93932L9.82418 2.93148C9.82088 3.14255 9.95048 3.33295 10.1481 3.40729L10.3241 2.93932ZM6.2527 2.91297L6.42259 3.38322C6.61977 3.31199 6.75156 3.12531 6.7527 2.91567L6.2527 2.91297ZM2.5659 9.29746L2.07477 9.3912V9.3912L2.5659 9.29746ZM2.60356 9.49476L3.09469 9.40103V9.40103L2.60356 9.49476ZM0.961245 14.7101L1.31165 15.0668H1.31165L0.961245 14.7101ZM0.86627 14.8034L0.515867 14.4467H0.515866L0.86627 14.8034ZM15.6391 14.8034L15.9895 14.4467L15.9895 14.4467L15.6391 14.8034ZM15.5441 14.7101L15.1937 15.0668L15.1937 15.0668L15.5441 14.7101ZM13.9018 9.49476L14.393 9.5885V9.5885L13.9018 9.49476ZM13.9395 9.29746L13.4483 9.20372V9.20373L13.9395 9.29746ZM10.5624 18.9567C10.6681 18.7016 10.5469 18.4091 10.2918 18.3034C10.0367 18.1978 9.74418 18.3189 9.63851 18.574L10.5624 18.9567ZM9.6669 19.4142L10.0205 19.7678L10.0205 19.7678L9.6669 19.4142ZM7.48732 19.8478L7.29598 20.3097L7.48732 19.8478ZM6.83847 19.4142L6.48492 19.7678L6.48492 19.7678L6.83847 19.4142ZM6.86687 18.574C6.76119 18.3189 6.46871 18.1978 6.21359 18.3034C5.95846 18.4091 5.83731 18.7016 5.94299 18.9567L6.86687 18.574ZM10.8241 2.94715C10.8242 2.938 10.8243 2.92886 10.8243 2.91975H9.82428C9.82428 2.9237 9.82424 2.92761 9.82418 2.93148L10.8241 2.94715ZM10.8243 2.91975C10.8243 2.32046 10.5199 1.72027 10.0827 1.28021C9.63954 0.8341 9.00867 0.5 8.28848 0.5V1.5C8.69263 1.5 9.07965 1.6894 9.37329 1.98498C9.67294 2.28662 9.82428 2.6463 9.82428 2.91975H10.8243ZM8.28848 0.5C7.57015 0.5 6.94067 0.832391 6.49772 1.27671C6.06071 1.71508 5.75594 2.31277 5.75271 2.91027L6.7527 2.91567C6.75418 2.64179 6.90658 2.283 7.20592 1.98272C7.49933 1.6884 7.88539 1.5 8.28848 1.5V0.5ZM6.08281 2.44271C3.30682 3.44561 1.4885 6.31942 2.07477 9.3912L3.05703 9.20373C2.56854 6.64422 4.08005 4.22952 6.42259 3.38322L6.08281 2.44271ZM2.07477 9.3912L2.11242 9.5885L3.09469 9.40103L3.05703 9.20372L2.07477 9.3912ZM2.11242 9.5885C2.44304 11.3208 1.88283 13.1038 0.610841 14.3534L1.31165 15.0668C2.81976 13.5852 3.48863 11.4651 3.09469 9.40103L2.11242 9.5885ZM0.610841 14.3534L0.515867 14.4467L1.21667 15.1601L1.31165 15.0668L0.610841 14.3534ZM0.515866 14.4467C-0.599325 15.5423 0.20936 17.3864 1.74451 17.3864V16.3864C1.06662 16.3864 0.767003 15.6018 1.21667 15.1601L0.515866 14.4467ZM1.74451 17.3864H14.7609V16.3864H1.74451V17.3864ZM14.7609 17.3864C16.296 17.3864 17.1047 15.5423 15.9895 14.4467L15.2887 15.1601C15.7384 15.6018 15.4388 16.3864 14.7609 16.3864V17.3864ZM15.9895 14.4467L15.8945 14.3534L15.1937 15.0668L15.2887 15.1601L15.9895 14.4467ZM15.8945 14.3534C14.6225 13.1038 14.0623 11.3208 14.393 9.5885L13.4107 9.40103C13.0167 11.4651 13.6856 13.5852 15.1937 15.0668L15.8945 14.3534ZM14.393 9.5885L14.4306 9.3912L13.4483 9.20373L13.4107 9.40103L14.393 9.5885ZM14.4306 9.3912C15.0114 6.34813 13.2322 3.49925 10.5002 2.47134L10.1481 3.40729C12.4534 4.27468 13.9323 6.66809 13.4483 9.20372L14.4306 9.3912ZM9.63851 18.574C9.56312 18.756 9.45263 18.9214 9.31334 19.0607L10.0205 19.7678C10.2526 19.5356 10.4367 19.26 10.5624 18.9567L9.63851 18.574ZM9.31335 19.0607C9.17406 19.1999 9.0087 19.3104 8.82671 19.3858L9.20939 20.3097C9.51271 20.1841 9.78831 19.9999 10.0205 19.7678L9.31335 19.0607ZM8.82671 19.3858C8.64472 19.4612 8.44967 19.5 8.25269 19.5V20.5C8.58099 20.5 8.90608 20.4353 9.20939 20.3097L8.82671 19.3858ZM8.25269 19.5C8.0557 19.5 7.86065 19.4612 7.67866 19.3858L7.29598 20.3097C7.59929 20.4353 7.92438 20.5 8.25269 20.5V19.5ZM7.67866 19.3858C7.49667 19.3104 7.33131 19.1999 7.19203 19.0607L6.48492 19.7678C6.71707 19.9999 6.99266 20.1841 7.29598 20.3097L7.67866 19.3858ZM7.19203 19.0607C7.05274 18.9214 6.94225 18.756 6.86687 18.574L5.94299 18.9567C6.06862 19.26 6.25277 19.5356 6.48492 19.7678L7.19203 19.0607Z" fill="#8D8D9F"/>
</svg>
